<mxfile host="app.diagrams.net" agent="Mozilla/5.0 (Macintosh; Intel Mac OS X 10_15_7) AppleWebKit/537.36 (KHTML, like Gecko) Chrome/129.0.0.0 Safari/537.36" version="24.7.16">
  <diagram name="Page-1" id="qewocp9qWGF084Xped2Q">
    <mxGraphModel dx="2524" dy="795" grid="1" gridSize="10" guides="1" tooltips="1" connect="1" arrows="1" fold="1" page="1" pageScale="1" pageWidth="850" pageHeight="1100" math="0" shadow="0">
      <root>
        <mxCell id="0" />
        <mxCell id="1" parent="0" />
        <mxCell id="AU1NNC18Ojmz-x1suM1B-1" value="&lt;h1 style=&quot;margin-top: 0px;&quot;&gt;Use Cases/ FR&lt;/h1&gt;&lt;p&gt;- AA&lt;/p&gt;&lt;p&gt;- BB&lt;/p&gt;&lt;p&gt;- CC&lt;/p&gt;" style="text;html=1;whiteSpace=wrap;overflow=hidden;rounded=0;" vertex="1" parent="1">
          <mxGeometry x="-220" y="10" width="180" height="410" as="geometry" />
        </mxCell>
        <mxCell id="AU1NNC18Ojmz-x1suM1B-2" value="&lt;h1 style=&quot;margin-top: 0px;&quot;&gt;NFR&lt;/h1&gt;&lt;p&gt;- AA&lt;/p&gt;&lt;p&gt;- BB&lt;/p&gt;&lt;p&gt;- CC&lt;/p&gt;" style="text;html=1;whiteSpace=wrap;overflow=hidden;rounded=0;" vertex="1" parent="1">
          <mxGeometry x="-450" y="10" width="180" height="410" as="geometry" />
        </mxCell>
        <mxCell id="AU1NNC18Ojmz-x1suM1B-3" value="&lt;h1 style=&quot;margin-top: 0px;&quot;&gt;Size&lt;/h1&gt;&lt;p&gt;- AA&lt;/p&gt;&lt;p&gt;- BB&lt;/p&gt;&lt;p&gt;- CC&lt;br&gt;&lt;br&gt;&lt;br&gt;&lt;br&gt;&lt;b&gt;APIs&lt;br&gt;&lt;br&gt;-&amp;nbsp;&lt;/b&gt;&lt;/p&gt;" style="text;html=1;whiteSpace=wrap;overflow=hidden;rounded=0;" vertex="1" parent="1">
          <mxGeometry x="-460" y="420" width="180" height="410" as="geometry" />
        </mxCell>
        <mxCell id="AU1NNC18Ojmz-x1suM1B-4" value="&lt;h1 style=&quot;margin-top: 0px;&quot;&gt;Assumptions&lt;/h1&gt;&lt;p&gt;- AA&lt;/p&gt;&lt;p&gt;- BB&lt;/p&gt;&lt;p&gt;- CC&lt;/p&gt;" style="text;html=1;whiteSpace=wrap;overflow=hidden;rounded=0;" vertex="1" parent="1">
          <mxGeometry x="-250" y="420" width="180" height="410" as="geometry" />
        </mxCell>
        <mxCell id="AU1NNC18Ojmz-x1suM1B-5" value="Actor" style="shape=umlActor;verticalLabelPosition=bottom;verticalAlign=top;html=1;outlineConnect=0;" vertex="1" parent="1">
          <mxGeometry x="180" y="40" width="30" height="60" as="geometry" />
        </mxCell>
        <mxCell id="AU1NNC18Ojmz-x1suM1B-6" value="" style="rounded=1;whiteSpace=wrap;html=1;" vertex="1" parent="1">
          <mxGeometry x="490" y="40" width="90" height="40" as="geometry" />
        </mxCell>
        <mxCell id="AU1NNC18Ojmz-x1suM1B-7" value="" style="rounded=1;whiteSpace=wrap;html=1;" vertex="1" parent="1">
          <mxGeometry x="490" y="130" width="90" height="40" as="geometry" />
        </mxCell>
        <mxCell id="AU1NNC18Ojmz-x1suM1B-8" value="" style="rounded=1;whiteSpace=wrap;html=1;" vertex="1" parent="1">
          <mxGeometry x="150" y="160" width="90" height="40" as="geometry" />
        </mxCell>
        <mxCell id="AU1NNC18Ojmz-x1suM1B-9" value="" style="rounded=1;whiteSpace=wrap;html=1;" vertex="1" parent="1">
          <mxGeometry x="150" y="250" width="90" height="40" as="geometry" />
        </mxCell>
      </root>
    </mxGraphModel>
  </diagram>
</mxfile>
